<svg width="38" height="38" viewBox="0 0 38 46" fill="none" xmlns="http://www.w3.org/2000/svg">
<path d="M2 19C2 9.61116 9.61116 2 19 2C28.3888 2 36 9.61116 36 19V23V30C36 32.8333 35.9984 34.8379 35.8704 36.4051C35.7443 37.949 35.5054 38.8913 35.1281 39.6319C34.3611 41.1372 33.1372 42.3611 31.6319 43.1281C30.8913 43.5054 29.949 43.7443 28.4051 43.8704C26.8379 43.9984 24.8333 44 22 44H19H16C13.1667 44 11.1621 43.9984 9.59488 43.8704C8.05104 43.7443 7.1087 43.5054 6.36808 43.1281C4.86278 42.3611 3.63893 41.1372 2.87195 39.6319C2.49458 38.8913 2.25574 37.949 2.1296 36.4051C2.00156 34.8379 2 32.8333 2 30V23V19Z" stroke="white" stroke-width="4" stroke-linejoin="round"/>
</svg>
