<svg width="17" height="14" viewBox="0 0 17 14" fill="none" xmlns="http://www.w3.org/2000/svg">
	<path d="M8.49976 10.1666H8.50609M8.49976 5.41656V7.79156M7.37163 1.63002L1.78405 10.9582C1.66892 11.1578 1.60803 11.3839 1.60743 11.6143C1.60682 11.8447 1.66652 12.0712 1.7806 12.2713C1.89467 12.4714 2.05914 12.6382 2.25766 12.7551C2.45618 12.8719 2.68183 12.9348 2.91217 12.9374H14.0873C14.3178 12.935 14.5436 12.8723 14.7422 12.7555C14.9409 12.6387 15.1055 12.4719 15.2196 12.2717C15.3337 12.0715 15.3934 11.8449 15.3927 11.6144C15.3919 11.384 15.3308 11.1577 15.2155 10.9582L9.62868 1.63002C9.51116 1.436 9.3456 1.27557 9.14799 1.16423C8.95037 1.05288 8.72738 0.994385 8.50055 0.994385C8.27372 0.994385 8.05073 1.05288 7.85311 1.16423C7.6555 1.27557 7.48994 1.436 7.37243 1.63002" stroke="white" stroke-width="1.5" stroke-miterlimit="10" stroke-linecap="round" stroke-linejoin="round" />
</svg>
