<svg width="14" height="14" viewBox="0 0 14 14" fill="none" xmlns="http://www.w3.org/2000/svg">
	<path d="M2.52778 1.16667C2.16679 1.16667 1.82058 1.31007 1.56533 1.56533C1.31007 1.82058 1.16667 2.16679 1.16667 2.52778V3.69444C1.16667 3.84915 1.10521 3.99753 0.995812 4.10692C0.886416 4.21632 0.738043 4.27778 0.583333 4.27778C0.428624 4.27778 0.280251 4.21632 0.170854 4.10692C0.0614581 3.99753 0 3.84915 0 3.69444V2.52778C0 1.85737 0.266319 1.21442 0.740369 0.740369C1.21442 0.266319 1.85737 0 2.52778 0H3.69444C3.84915 0 3.99753 0.0614581 4.10692 0.170854C4.21632 0.280251 4.27778 0.428624 4.27778 0.583333C4.27778 0.738043 4.21632 0.886416 4.10692 0.995812C3.99753 1.10521 3.84915 1.16667 3.69444 1.16667H2.52778ZM12.8333 2.52778C12.8333 2.16679 12.6899 1.82058 12.4347 1.56533C12.1794 1.31007 11.8332 1.16667 11.4722 1.16667H10.3056C10.1508 1.16667 10.0025 1.10521 9.89308 0.995812C9.78368 0.886416 9.72222 0.738043 9.72222 0.583333C9.72222 0.428624 9.78368 0.280251 9.89308 0.170854C10.0025 0.0614581 10.1508 0 10.3056 0H11.4722C12.1426 0 12.7856 0.266319 13.2596 0.740369C13.7337 1.21442 14 1.85737 14 2.52778V3.69444C14 3.84915 13.9385 3.99753 13.8291 4.10692C13.7198 4.21632 13.5714 4.27778 13.4167 4.27778C13.262 4.27778 13.1136 4.21632 13.0042 4.10692C12.8948 3.99753 12.8333 3.84915 12.8333 3.69444V2.52778ZM12.8333 11.4722C12.8333 11.8332 12.6899 12.1794 12.4347 12.4347C12.1794 12.6899 11.8332 12.8333 11.4722 12.8333H10.3056C10.1508 12.8333 10.0025 12.8948 9.89308 13.0042C9.78368 13.1136 9.72222 13.262 9.72222 13.4167C9.72222 13.5714 9.78368 13.7198 9.89308 13.8291C10.0025 13.9385 10.1508 14 10.3056 14H11.4722C12.1426 14 12.7856 13.7337 13.2596 13.2596C13.7337 12.7856 14 12.1426 14 11.4722V10.3056C14 10.1508 13.9385 10.0025 13.8291 9.89308C13.7198 9.78368 13.5714 9.72222 13.4167 9.72222C13.262 9.72222 13.1136 9.78368 13.0042 9.89308C12.8948 10.0025 12.8333 10.1508 12.8333 10.3056V11.4722ZM1.16667 11.4722C1.16667 12.2236 1.77644 12.8333 2.52778 12.8333H3.69444C3.84915 12.8333 3.99753 12.8948 4.10692 13.0042C4.21632 13.1136 4.27778 13.262 4.27778 13.4167C4.27778 13.5714 4.21632 13.7198 4.10692 13.8291C3.99753 13.9385 3.84915 14 3.69444 14H2.52778C1.85737 14 1.21442 13.7337 0.740369 13.2596C0.266319 12.7856 0 12.1426 0 11.4722V10.3056C0 10.1508 0.0614581 10.0025 0.170854 9.89308C0.280251 9.78368 0.428624 9.72222 0.583333 9.72222C0.738043 9.72222 0.886416 9.78368 0.995812 9.89308C1.10521 10.0025 1.16667 10.1508 1.16667 10.3056V11.4722ZM4.08333 2.33333C3.6192 2.33333 3.17409 2.51771 2.8459 2.8459C2.51771 3.17409 2.33333 3.6192 2.33333 4.08333V9.91667C2.33333 10.3808 2.51771 10.8259 2.8459 11.1541C3.17409 11.4823 3.6192 11.6667 4.08333 11.6667H9.91667C10.3808 11.6667 10.8259 11.4823 11.1541 11.1541C11.4823 10.8259 11.6667 10.3808 11.6667 9.91667V4.08333C11.6667 3.6192 11.4823 3.17409 11.1541 2.8459C10.8259 2.51771 10.3808 2.33333 9.91667 2.33333H4.08333ZM3.5 4.08333C3.5 3.92862 3.56146 3.78025 3.67085 3.67085C3.78025 3.56146 3.92862 3.5 4.08333 3.5H9.91667C10.0714 3.5 10.2198 3.56146 10.3291 3.67085C10.4385 3.78025 10.5 3.92862 10.5 4.08333V9.91667C10.5 10.0714 10.4385 10.2198 10.3291 10.3291C10.2198 10.4385 10.0714 10.5 9.91667 10.5H4.08333C3.92862 10.5 3.78025 10.4385 3.67085 10.3291C3.56146 10.2198 3.5 10.0714 3.5 9.91667V4.08333Z" fill="black" />
</svg>
