<svg width="19" height="16" viewBox="0 0 19 16" fill="none" xmlns="http://www.w3.org/2000/svg">
	<path d="M18.25 5.81253H15.75C15.75 5.64677 15.6842 5.4878 15.5669 5.37059C15.4497 5.25338 15.2908 5.18753 15.125 5.18753H10.125C9.95924 5.18753 9.80027 5.25338 9.68306 5.37059C9.56585 5.4878 9.5 5.64677 9.5 5.81253H4.5V2.37503C4.5 2.12639 4.59877 1.88793 4.77459 1.71212C4.9504 1.5363 5.18886 1.43753 5.4375 1.43753C5.65723 1.43663 5.87077 1.51022 6.0433 1.64628C6.21583 1.78235 6.33716 1.97286 6.3875 2.18675C6.42183 2.34781 6.51835 2.48882 6.65607 2.57912C6.79379 2.66942 6.96159 2.70171 7.12299 2.66898C7.28439 2.63625 7.42635 2.54114 7.51801 2.40432C7.60967 2.2675 7.64363 2.10003 7.6125 1.93831C7.50638 1.44097 7.23218 0.995375 6.83605 0.676503C6.43991 0.357631 5.94602 0.184952 5.4375 0.187528C4.85734 0.187528 4.30094 0.417997 3.8907 0.828232C3.48047 1.23847 3.25 1.79487 3.25 2.37503V5.81253H0.75C0.58424 5.81253 0.425268 5.87838 0.308058 5.99559C0.190848 6.1128 0.125 6.27177 0.125 6.43753V9.56253C0.126241 10.7225 0.587575 11.8345 1.40778 12.6548C2.22798 13.475 3.34006 13.9363 4.5 13.9375V15.1875C4.5 15.3533 4.56585 15.5123 4.68306 15.6295C4.80027 15.7467 4.95924 15.8125 5.125 15.8125C5.29076 15.8125 5.44973 15.7467 5.56694 15.6295C5.68415 15.5123 5.75 15.3533 5.75 15.1875V13.9375H13.25V15.1875C13.25 15.3533 13.3158 15.5123 13.4331 15.6295C13.5503 15.7467 13.7092 15.8125 13.875 15.8125C14.0408 15.8125 14.1997 15.7467 14.3169 15.6295C14.4342 15.5123 14.5 15.3533 14.5 15.1875V13.9375C15.6599 13.9363 16.772 13.475 17.5922 12.6548C18.4124 11.8345 18.8738 10.7225 18.875 9.56253V6.43753C18.875 6.27177 18.8092 6.1128 18.6919 5.99559C18.5747 5.87838 18.4158 5.81253 18.25 5.81253ZM14.5 6.43753V8.93753H10.75V6.43753H14.5ZM17.625 9.56253C17.625 9.97291 17.5442 10.3793 17.3871 10.7584C17.2301 11.1376 16.9999 11.4821 16.7097 11.7722C16.4195 12.0624 16.075 12.2926 15.6959 12.4497C15.3167 12.6067 14.9104 12.6875 14.5 12.6875H4.5C3.6712 12.6875 2.87634 12.3583 2.29029 11.7722C1.70424 11.1862 1.375 10.3913 1.375 9.56253V7.06253H9.5V9.56253C9.5 9.72829 9.56585 9.88726 9.68306 10.0045C9.80027 10.1217 9.95924 10.1875 10.125 10.1875H15.125C15.2908 10.1875 15.4497 10.1217 15.5669 10.0045C15.6842 9.88726 15.75 9.72829 15.75 9.56253V7.06253H17.625V9.56253Z" fill="#1A1B27" />
</svg>
