<svg width="19" height="19" viewBox="0 0 19 19" fill="none" xmlns="http://www.w3.org/2000/svg">
	<path d="M1 9.28755C1 6.0822 1 4.4791 1.9962 3.48375C2.9924 2.4884 4.59465 2.48755 7.8 2.48755H11.2C14.4054 2.48755 16.0084 2.48755 17.0038 3.48375C17.9991 4.47995 18 6.0822 18 9.28755V10.9875C18 14.1929 18 15.796 17.0038 16.7913C16.0076 17.7867 14.4054 17.7875 11.2 17.7875H7.8C4.59465 17.7875 2.99155 17.7875 1.9962 16.7913C1.00085 15.7951 1 14.1929 1 10.9875V9.28755Z" stroke="#71717A" stroke-width="1.5" />
	<path d="M5.25005 2.48752V1.21252M13.75 2.48752V1.21252M1.42505 6.73752H17.575" stroke="#71717A" stroke-width="1.5" stroke-linecap="round" />
	<path d="M14.6 13.5375C14.6 13.763 14.5105 13.9792 14.3511 14.1386C14.1917 14.298 13.9755 14.3875 13.75 14.3875C13.5246 14.3875 13.3084 14.298 13.149 14.1386C12.9896 13.9792 12.9 13.763 12.9 13.5375C12.9 13.3121 12.9896 13.0959 13.149 12.9365C13.3084 12.7771 13.5246 12.6875 13.75 12.6875C13.9755 12.6875 14.1917 12.7771 14.3511 12.9365C14.5105 13.0959 14.6 13.3121 14.6 13.5375ZM14.6 10.1375C14.6 10.363 14.5105 10.5792 14.3511 10.7386C14.1917 10.898 13.9755 10.9875 13.75 10.9875C13.5246 10.9875 13.3084 10.898 13.149 10.7386C12.9896 10.5792 12.9 10.363 12.9 10.1375C12.9 9.9121 12.9896 9.6959 13.149 9.5365C13.3084 9.37709 13.5246 9.28754 13.75 9.28754C13.9755 9.28754 14.1917 9.37709 14.3511 9.5365C14.5105 9.6959 14.6 9.9121 14.6 10.1375ZM10.35 13.5375C10.35 13.763 10.2605 13.9792 10.1011 14.1386C9.94166 14.298 9.72546 14.3875 9.50002 14.3875C9.27459 14.3875 9.05839 14.298 8.89898 14.1386C8.73958 13.9792 8.65002 13.763 8.65002 13.5375C8.65002 13.3121 8.73958 13.0959 8.89898 12.9365C9.05839 12.7771 9.27459 12.6875 9.50002 12.6875C9.72546 12.6875 9.94166 12.7771 10.1011 12.9365C10.2605 13.0959 10.35 13.3121 10.35 13.5375ZM10.35 10.1375C10.35 10.363 10.2605 10.5792 10.1011 10.7386C9.94166 10.898 9.72546 10.9875 9.50002 10.9875C9.27459 10.9875 9.05839 10.898 8.89898 10.7386C8.73958 10.5792 8.65002 10.363 8.65002 10.1375C8.65002 9.9121 8.73958 9.6959 8.89898 9.5365C9.05839 9.37709 9.27459 9.28754 9.50002 9.28754C9.72546 9.28754 9.94166 9.37709 10.1011 9.5365C10.2605 9.6959 10.35 9.9121 10.35 10.1375ZM6.10002 13.5375C6.10002 13.763 6.01047 13.9792 5.85106 14.1386C5.69166 14.298 5.47546 14.3875 5.25002 14.3875C5.02459 14.3875 4.80839 14.298 4.64898 14.1386C4.48958 13.9792 4.40002 13.763 4.40002 13.5375C4.40002 13.3121 4.48958 13.0959 4.64898 12.9365C4.80839 12.7771 5.02459 12.6875 5.25002 12.6875C5.47546 12.6875 5.69166 12.7771 5.85106 12.9365C6.01047 13.0959 6.10002 13.3121 6.10002 13.5375ZM6.10002 10.1375C6.10002 10.363 6.01047 10.5792 5.85106 10.7386C5.69166 10.898 5.47546 10.9875 5.25002 10.9875C5.02459 10.9875 4.80839 10.898 4.64898 10.7386C4.48958 10.5792 4.40002 10.363 4.40002 10.1375C4.40002 9.9121 4.48958 9.6959 4.64898 9.5365C4.80839 9.37709 5.02459 9.28754 5.25002 9.28754C5.47546 9.28754 5.69166 9.37709 5.85106 9.5365C6.01047 9.6959 6.10002 9.9121 6.10002 10.1375Z" fill="#71717A" />
</svg>
