<svg width="25" height="26" viewBox="0 0 25 26" fill="none" xmlns="http://www.w3.org/2000/svg">
	<circle cx="12.5" cy="13" r="12.5" fill="#6A4CFF" />
	<path fill-rule="evenodd" clip-rule="evenodd" d="M17.7583 8.74645C17.9131 8.90412 18 9.11794 18 9.34088C18 9.56383 17.9131 9.77764 17.7583 9.93531L11.5713 16.2373C11.4895 16.3206 11.3925 16.3866 11.2856 16.4317C11.1788 16.4768 11.0643 16.5 10.9486 16.5C10.833 16.5 10.7185 16.4768 10.6116 16.4317C10.5048 16.3866 10.4077 16.3206 10.326 16.2373L7.252 13.1067C7.17316 13.0292 7.11028 12.9364 7.06702 12.8338C7.02375 12.7312 7.00098 12.6209 7.00003 12.5093C6.99908 12.3976 7.01996 12.2869 7.06147 12.1836C7.10297 12.0803 7.16426 11.9864 7.24177 11.9075C7.31927 11.8285 7.41144 11.7661 7.51288 11.7238C7.61432 11.6815 7.72302 11.6603 7.83262 11.6612C7.94222 11.6622 8.05054 11.6854 8.15125 11.7295C8.25196 11.7735 8.34304 11.8376 8.41919 11.9179L10.9484 14.494L16.5906 8.74645C16.6672 8.66832 16.7583 8.60634 16.8584 8.56405C16.9586 8.52177 17.066 8.5 17.1745 8.5C17.2829 8.5 17.3903 8.52177 17.4905 8.56405C17.5906 8.60634 17.6817 8.66832 17.7583 8.74645Z" fill="white" />
</svg>
