<svg width="16" height="16" viewBox="0 0 16 16" fill="none" xmlns="http://www.w3.org/2000/svg">
	<path d="M15.125 8H13.5417M13.5417 8C13.5417 9.46986 12.9582 10.8791 11.9189 11.9185C10.8795 12.9578 9.46986 13.5417 8 13.5417M13.5417 8C13.5417 6.53014 12.9582 5.1201 11.9189 4.08075C10.8795 3.0414 9.46986 2.45825 8 2.45825M8 0.875V2.45825M8 2.45825C6.53024 2.45825 5.12067 3.04136 4.08139 4.08064C3.04211 5.11992 2.45825 6.52949 2.45825 7.99925C2.45825 9.46901 3.04211 10.8786 4.08139 11.9179C5.12067 12.9571 6.53024 13.5417 8 13.5417M0.875 8H2.45825M8 15.125V13.5417" stroke="#6A4CFF" stroke-miterlimit="10" stroke-linecap="round" />
	<path d="M8 10C8.53043 10 9.03914 9.78929 9.41421 9.41421C9.78929 9.03914 10 8.53043 10 8C10 7.46957 9.78929 6.96086 9.41421 6.58579C9.03914 6.21071 8.53043 6 8 6C7.46957 6 6.96086 6.21071 6.58579 6.58579C6.21071 6.96086 6 7.46957 6 8C6 8.53043 6.21071 9.03914 6.58579 9.41421C6.96086 9.78929 7.46957 10 8 10Z" stroke="#6A4CFF" stroke-miterlimit="10" stroke-linecap="round" />
</svg>
