<svg width="20" height="24" viewBox="0 0 20 24" fill="none" xmlns="http://www.w3.org/2000/svg">
	<path d="M1.875 0C0.846836 0 0 0.812962 0 1.8V22.2C0 23.187 0.846836 24 1.875 24H18.125C19.1532 24 20 23.187 20 22.2V6.6C20 6.44088 19.9341 6.28829 19.8169 6.17578L13.5669 0.175781C13.4497 0.0632594 13.2907 3.05159e-05 13.125 0H1.875ZM1.875 1.2H12.5V6.6C12.5 6.75913 12.5659 6.91173 12.6831 7.02425C12.8003 7.13677 12.9592 7.19998 13.125 7.2H18.75V22.2C18.75 22.5378 18.4768 22.8 18.125 22.8H1.875C1.52316 22.8 1.25 22.5378 1.25 22.2V1.8C1.25 1.46224 1.52316 1.2 1.875 1.2ZM13.75 2.04844L17.8662 6H13.75V2.04844ZM5.625 10.8C5.54218 10.7989 5.45995 10.8136 5.3831 10.8432C5.30624 10.8729 5.23629 10.9169 5.17731 10.9727C5.11833 11.0285 5.07149 11.0951 5.03953 11.1684C5.00756 11.2418 4.9911 11.3205 4.9911 11.4C4.9911 11.4795 5.00756 11.5582 5.03953 11.6316C5.07149 11.7049 5.11833 11.7715 5.17731 11.8273C5.23629 11.8831 5.30624 11.9271 5.3831 11.9568C5.45995 11.9864 5.54218 12.0011 5.625 12H14.375C14.4578 12.0011 14.54 11.9864 14.6169 11.9568C14.6938 11.9271 14.7637 11.8831 14.8227 11.8273C14.8817 11.7715 14.9285 11.7049 14.9605 11.6316C14.9924 11.5582 15.0089 11.4795 15.0089 11.4C15.0089 11.3205 14.9924 11.2418 14.9605 11.1684C14.9285 11.0951 14.8817 11.0285 14.8227 10.9727C14.7637 10.9169 14.6938 10.8729 14.6169 10.8432C14.54 10.8136 14.4578 10.7989 14.375 10.8H5.625ZM5.625 14.4C5.54218 14.3989 5.45995 14.4136 5.3831 14.4432C5.30624 14.4729 5.23629 14.5169 5.17731 14.5727C5.11833 14.6285 5.07149 14.6951 5.03953 14.7684C5.00756 14.8418 4.9911 14.9205 4.9911 15C4.9911 15.0795 5.00756 15.1582 5.03953 15.2316C5.07149 15.3049 5.11833 15.3715 5.17731 15.4273C5.23629 15.4831 5.30624 15.5271 5.3831 15.5568C5.45995 15.5864 5.54218 15.6011 5.625 15.6H14.375C14.4578 15.6011 14.54 15.5864 14.6169 15.5568C14.6938 15.5271 14.7637 15.4831 14.8227 15.4273C14.8817 15.3715 14.9285 15.3049 14.9605 15.2316C14.9924 15.1582 15.0089 15.0795 15.0089 15C15.0089 14.9205 14.9924 14.8418 14.9605 14.7684C14.9285 14.6951 14.8817 14.6285 14.8227 14.5727C14.7637 14.5169 14.6938 14.4729 14.6169 14.4432C14.54 14.4136 14.4578 14.3989 14.375 14.4H5.625ZM5.625 18C5.54218 17.9989 5.45995 18.0136 5.3831 18.0432C5.30624 18.0729 5.23629 18.1169 5.17731 18.1727C5.11833 18.2285 5.07149 18.2951 5.03953 18.3684C5.00756 18.4418 4.9911 18.5205 4.9911 18.6C4.9911 18.6795 5.00756 18.7582 5.03953 18.8316C5.07149 18.9049 5.11833 18.9715 5.17731 19.0273C5.23629 19.0831 5.30624 19.1271 5.3831 19.1568C5.45995 19.1864 5.54218 19.2011 5.625 19.2H11.875C11.9578 19.2011 12.04 19.1864 12.1169 19.1568C12.1938 19.1271 12.2637 19.0831 12.3227 19.0273C12.3817 18.9715 12.4285 18.9049 12.4605 18.8316C12.4924 18.7582 12.5089 18.6795 12.5089 18.6C12.5089 18.5205 12.4924 18.4418 12.4605 18.3684C12.4285 18.2951 12.3817 18.2285 12.3227 18.1727C12.2637 18.1169 12.1938 18.0729 12.1169 18.0432C12.04 18.0136 11.9578 17.9989 11.875 18H5.625Z" fill="#A0AEC0" />
</svg>
