<svg width="103" height="19" viewBox="0 0 103 19" fill="none" xmlns="http://www.w3.org/2000/svg">
	<path fill-rule="evenodd" clip-rule="evenodd" d="M100.55 0L99.5958 3.33614H99.113C95.8048 3.33614 92.4972 3.33614 89.1896 3.33745C88.213 3.33745 87.8583 3.60083 87.5847 4.5279C87.4489 4.98848 87.3208 5.45169 87.1702 5.9791H87.8937C91.6236 5.9791 95.3535 5.98172 99.0827 5.97714C99.8366 5.97648 100.574 6.04986 101.255 6.39186C102.666 7.10141 103.303 8.59586 102.862 10.2626C102.471 11.7394 102.056 13.2109 101.599 14.6687C100.832 17.1177 98.2555 18.9646 95.5711 18.9817C92.0382 19.0046 88.5053 18.9928 84.973 18.9882C83.9797 18.9869 83.0341 18.8015 82.2712 18.1122C81.2258 17.1675 81.0095 15.979 81.3416 14.6772C81.6294 13.5477 81.9699 12.4299 82.3079 11.3142C82.3427 11.2002 82.5216 11.0488 82.6343 11.0488C87.4901 11.0338 92.3459 11.0338 97.2017 11.0331C97.2403 11.0331 97.2802 11.0528 97.3652 11.0757C97.2648 11.4518 97.1695 11.8246 97.0659 12.1947C96.9275 12.6894 96.7569 13.1775 96.6474 13.678C96.565 14.0515 96.408 14.1766 95.9992 14.1747C92.4392 14.1583 88.878 14.1701 85.3168 14.1733C84.7831 14.1733 84.657 14.3168 84.6035 14.9812C84.5713 15.3743 84.8185 15.6396 85.2666 15.6848C85.3928 15.6979 85.5202 15.694 85.6464 15.694L96.7517 15.6927C97.6781 15.6927 98.0457 15.4241 98.3012 14.5429C98.6949 13.1822 99.0838 11.8201 99.4677 10.4566C99.7226 9.55241 99.5153 9.29035 98.5555 9.29035C95.0934 9.28904 91.6307 9.29035 88.1686 9.29035H82.8808C83.1519 8.33052 83.4068 7.42769 83.6636 6.52486C83.8342 5.92341 83.9945 5.31935 84.1812 4.72314C85.0071 2.08738 86.8554 0.602103 89.5552 0.0786207C89.6196 0.0661724 89.6776 0.0268621 89.7394 0L100.55 0ZM49.6189 0C49.982 0.0963104 50.3547 0.165759 50.7056 0.294828C52.3375 0.893 53.1711 2.49228 52.7076 4.25534C52.2281 6.08185 51.7061 7.89653 51.142 9.69786C50.3753 12.1417 47.8705 14.0371 45.2936 14.0731C41.9023 14.1216 38.5104 14.0869 35.1185 14.0869C35.0637 14.0869 35.009 14.0738 34.9041 14.0593L35.5478 11.7728C35.777 10.9643 35.7777 10.9643 36.6197 10.9643H46.1182C47.1933 10.9643 47.5184 10.7284 47.8093 9.72407C48.3185 7.96362 48.8239 6.20186 49.3286 4.44076C49.5565 3.64538 49.3299 3.32959 48.502 3.32893C44.7161 3.32369 40.9302 3.32369 37.145 3.32762C36.3841 3.32828 35.9721 3.63883 35.7628 4.36279C34.7801 7.76417 33.8011 11.1667 32.8261 14.5704C32.5988 15.3631 32.8582 15.6868 33.7061 15.6868C38.7724 15.6881 43.8387 15.6868 48.905 15.6868H49.4438L48.4956 18.9889H47.9716C43.0314 18.9889 38.0919 18.9902 33.1524 18.9889C32.0201 18.9882 30.9688 18.7596 30.1654 17.8882C29.2964 16.9447 29.147 15.8231 29.4734 14.6516C30.4281 11.2283 31.3499 7.79328 32.4276 4.40669C33.2194 1.91966 35.1204 0.560172 37.6851 0.079931C37.7797 0.0622414 37.8705 0.0275172 37.9632 0H49.6189ZM73.269 0C73.5001 0.0517586 73.7325 0.0969655 73.9623 0.156586C75.8859 0.654517 76.9236 2.30686 76.4195 4.20555C75.7314 6.79479 74.9782 9.36766 74.2475 11.9458C73.6192 14.1635 72.9761 16.3767 72.3587 18.5971C72.277 18.8912 72.1682 19.0033 71.8515 18.9967C70.8968 18.9764 69.9415 18.9895 68.9334 18.9895C68.9636 18.8323 68.9771 18.7157 69.0087 18.6036C70.3284 13.9558 71.65 9.30803 72.971 4.66024C73.0096 4.52659 73.0579 4.3949 73.0868 4.25993C73.2124 3.6611 72.969 3.3381 72.353 3.33221C71.1002 3.32027 69.8474 3.32092 68.5947 3.33417C67.9188 3.34203 67.5403 3.65848 67.3529 4.30841C66.0603 8.79176 64.7683 13.2751 63.4737 17.7578C63.2272 18.6121 62.7978 18.9482 61.901 18.9862C61.592 18.9993 61.2817 18.9954 60.9721 18.9836C60.2176 18.9535 59.935 18.5807 60.1314 17.8534C60.3232 17.1432 60.5389 16.4389 60.7416 15.7313L63.9655 4.47876C63.9964 4.37197 64.0299 4.26583 64.0531 4.15772C64.1503 3.68862 63.9481 3.35645 63.466 3.34728C62.1012 3.32107 60.7352 3.30797 59.3717 3.35383C58.7981 3.37348 58.464 3.79476 58.3083 4.33986C57.3845 7.56986 56.4568 10.7999 55.5311 14.0299C55.0953 15.5512 54.6543 17.0718 54.2327 18.5971C54.1535 18.8853 54.0344 19.0033 53.7177 18.9967C52.7624 18.9771 51.8064 18.9895 50.7835 18.9895C50.853 18.7268 50.9064 18.506 50.9689 18.2878C52.2641 13.7619 53.5355 9.23007 54.8648 4.71462C55.6502 2.0461 57.5538 0.576552 60.2768 0.076C60.358 0.0602759 60.4359 0.0255517 60.515 0H64.2314C64.5436 0.0733793 64.8751 0.103517 65.1648 0.22931C65.6824 0.456 66.1749 0.740345 66.6802 1.00241C67.0877 0.813069 67.5203 0.575241 67.98 0.410138C68.4628 0.236517 68.9713 0.133655 69.4677 0L73.269 0ZM83.2355 0C82.8918 1.24286 82.5564 2.48834 82.2023 3.72859C80.797 8.65417 79.3808 13.5771 77.9845 18.5053C77.8783 18.8801 77.7218 19.0151 77.3259 18.9987C76.5534 18.9672 75.7783 18.9902 75.0046 18.9882C74.8552 18.9882 74.7052 18.9751 74.5005 18.9646C74.6325 18.4942 74.7496 18.071 74.8707 17.6484L79.8514 0.276483C79.8778 0.183448 79.9112 0.0923793 79.9415 0H83.2355Z" fill="#00263E" />
	<path fill-rule="evenodd" clip-rule="evenodd" d="M9.90214 9.17636C9.92467 9.01257 9.9266 8.83698 9.97617 8.67515C10.0811 8.33446 10.2523 8.00819 10.3212 7.6616C10.4513 7.00643 10.4294 7.00119 11.1323 7.00119L23.7544 7.00053C23.923 7.00053 24.1013 7.02346 24.2578 6.97826C24.3884 6.94026 24.5603 6.84001 24.5977 6.72929C24.7238 6.34864 24.8294 5.95619 24.8874 5.55981C24.9904 4.84829 24.653 4.47091 23.9262 4.47091C18.6919 4.46698 13.4569 4.47026 8.2226 4.46764C7.6709 4.46764 7.21449 4.67926 6.9351 5.12805C6.6762 5.54434 6.47068 5.99262 6.32354 6.46198C6.0596 7.30584 5.86261 8.16936 5.63279 9.0237C5.36113 10.0346 5.07144 11.0416 4.81394 12.0558C4.64912 12.6966 4.51166 13.3443 4.40194 13.9971C4.3395 14.3745 4.56159 14.6543 4.92853 14.746C5.2504 14.8266 5.59159 14.8659 5.92377 14.8659C10.6379 14.8737 15.3521 14.8724 20.0657 14.8705C20.4036 14.8705 20.7474 14.8947 21.0764 14.8397C21.3751 14.7897 21.6633 14.6878 21.928 14.5383C22.4166 14.2572 22.6304 13.8097 22.7636 13.2548C23.0572 12.0362 23.4376 10.8372 23.7968 9.63498C23.8889 9.32836 23.829 9.18095 23.4878 9.19208C23.39 9.19536 23.2915 9.17702 23.193 9.17702C18.7769 9.1757 14.3595 9.17636 9.90214 9.17636ZM17.3638 0.0799452C19.953 0.0799452 22.5428 0.0786349 25.132 0.0806004C26.039 0.0812556 26.8959 0.268635 27.6246 0.832083C28.531 1.53246 29.0344 2.45036 29.2797 3.57464C29.5513 4.8175 29.1335 5.93326 28.8477 7.08243C28.7273 7.56595 28.5657 8.03898 28.4241 8.51726C27.9349 10.1703 27.4681 11.8305 26.9499 13.4749C26.3294 15.4418 24.935 16.7901 23.2175 17.8515C22.1495 18.5126 20.9727 18.8886 19.7155 18.903C17.0716 18.9338 14.4277 18.9162 11.7832 18.9162C9.8133 18.9175 7.84214 18.9456 5.87355 18.9037C4.91244 18.8841 3.94617 18.981 2.98698 18.7026C1.7233 18.3357 0.467342 17.1315 0.153192 15.8775C-0.235633 14.3293 0.182805 12.8997 0.660467 11.4564C0.946936 10.5915 1.15422 9.7005 1.40142 8.82257C1.68789 7.80639 1.9293 6.77384 2.28079 5.77929C2.6606 4.70546 3.20779 3.69977 3.98479 2.84412C4.70064 2.05726 5.50469 1.37129 6.45679 0.862221C7.47714 0.314497 8.57151 0.0812556 9.72189 0.0786349C12.2699 0.075359 14.8165 0.0786349 17.3638 0.0786349V0.0806004V0.0799452Z" fill="#FF8400" />
</svg>
