<svg width="24" height="22" viewBox="0 0 24 22" fill="none" xmlns="http://www.w3.org/2000/svg">
	<path d="M0.363525 7.31994C0.363525 12.3124 4.54703 17.2224 11.1445 21.4414C11.4025 21.5934 11.754 21.7579 12 21.7579C12.246 21.7579 12.5975 21.5939 12.844 21.4414C19.453 17.2224 23.637 12.3124 23.637 7.32044C23.637 3.17194 20.789 0.241943 16.992 0.241943C14.8125 0.241943 13.0545 1.27344 12 2.85544C10.945 1.28544 9.17603 0.241943 7.00803 0.241943C3.21103 0.241943 0.363525 3.17144 0.363525 7.31994ZM2.24953 7.32044C2.24953 4.20344 4.26503 2.12944 6.98403 2.12944C9.18703 2.12944 10.441 3.50044 11.2025 4.67244C11.519 5.14094 11.7185 5.26994 11.9995 5.26994C12.2805 5.26994 12.4565 5.12944 12.7965 4.67244C13.593 3.52394 14.8235 2.12944 17.015 2.12944C19.734 2.12944 21.7495 4.20344 21.7495 7.32094C21.7495 11.6799 17.144 16.3794 12.234 19.6369C12.1165 19.7189 12.0465 19.7779 11.9995 19.7779C11.9525 19.7779 11.8705 19.7194 11.7535 19.6369C6.85502 16.3789 2.24953 11.6799 2.24953 7.32044Z" fill="black" />
</svg>
