<svg width="32" height="35" viewBox="0 0 32 35" fill="none" xmlns="http://www.w3.org/2000/svg">
	<path d="M27.6667 13.1667L16 1.5L1 16.5H4.33333V28.1667C4.33333 29.0507 4.68452 29.8986 5.30964 30.5237C5.93477 31.1488 6.78261 31.5 7.66667 31.5H17.6667" stroke="#6A4CFF" stroke-width="2" stroke-linecap="round" stroke-linejoin="round" />
	<path d="M11 31.5001V21.5001C11 20.616 11.3512 19.7682 11.9763 19.1431C12.6014 18.5179 13.4493 18.1667 14.3333 18.1667H17.6667C18.3117 18.1667 18.9133 18.3501 19.4233 18.6667M31 21.5001H26.8333C26.1703 21.5001 25.5344 21.7635 25.0656 22.2323C24.5967 22.7012 24.3333 23.337 24.3333 24.0001C24.3333 24.6631 24.5967 25.299 25.0656 25.7678C25.5344 26.2367 26.1703 26.5001 26.8333 26.5001H28.5C29.163 26.5001 29.7989 26.7635 30.2678 27.2323C30.7366 27.7012 31 28.337 31 29.0001C31 29.6631 30.7366 30.299 30.2678 30.7678C29.7989 31.2367 29.163 31.5001 28.5 31.5001H24.3333M27.6667 31.5001V33.1667M27.6667 19.8334V21.5001" stroke="#6A4CFF" stroke-width="2" stroke-linecap="round" stroke-linejoin="round" />
</svg>
