<svg width="21" height="20" viewBox="0 0 21 20" fill="none" xmlns="http://www.w3.org/2000/svg">
	<path fill-rule="evenodd" clip-rule="evenodd" d="M20.5483 10C20.5483 15.523 16.1215 20 10.6605 20C5.19956 20 0.772827 15.523 0.772827 10C0.772827 4.477 5.19956 0 10.6605 0C16.1215 0 20.5483 4.477 20.5483 10ZM9.67177 6C9.67177 6.26522 9.77594 6.51957 9.96137 6.70711C10.1468 6.89464 10.3983 7 10.6605 7H10.6684C10.9307 7 11.1822 6.89464 11.3676 6.70711C11.553 6.51957 11.6572 6.26522 11.6572 6C11.6572 5.73478 11.553 5.48043 11.3676 5.29289C11.1822 5.10536 10.9307 5 10.6684 5H10.6605C10.3983 5 10.1468 5.10536 9.96137 5.29289C9.77594 5.48043 9.67177 5.73478 9.67177 6ZM10.6605 15C10.9228 15 11.1743 14.8946 11.3597 14.7071C11.5451 14.5196 11.6493 14.2652 11.6493 14V9C11.6493 8.73478 11.5451 8.48043 11.3597 8.29289C11.1743 8.10536 10.9228 8 10.6605 8C10.3983 8 10.1468 8.10536 9.96137 8.29289C9.77594 8.48043 9.67177 8.73478 9.67177 9V14C9.67177 14.2652 9.77594 14.5196 9.96137 14.7071C10.1468 14.8946 10.3983 15 10.6605 15Z" fill="#6A4CFF" />
</svg>
