<svg width="13" height="12" viewBox="0 0 13 12" fill="none" xmlns="http://www.w3.org/2000/svg">
	<path d="M12.3409 8.88508V11.1933C12.3409 11.536 12.076 11.8204 11.7342 11.8445C11.4487 11.8647 11.2158 11.8747 11.0354 11.8747C5.26719 11.8747 0.591187 7.19873 0.591187 1.43053C0.591187 1.25017 0.601272 1.01724 0.621442 0.731743C0.645607 0.389943 0.929931 0.125 1.27258 0.125H3.58091C3.74846 0.125 3.88879 0.25191 3.90561 0.418613C3.92071 0.568272 3.93476 0.688426 3.94774 0.779081C4.07978 1.70124 4.34949 2.57897 4.73538 3.39079C4.79732 3.5211 4.75693 3.67707 4.63952 3.76093L3.23067 4.76732C4.08838 6.77084 5.69507 8.37755 7.6986 9.23529L8.70314 7.82884C8.78806 7.71004 8.9459 7.66918 9.07776 7.73178C9.88953 8.11736 10.7672 8.38676 11.6892 8.51849C11.7793 8.53141 11.8987 8.54532 12.0473 8.56033C12.214 8.57717 12.3409 8.71751 12.3409 8.88508Z" fill="#6A4CFF" />
</svg>
