<svg width="15" height="12" viewBox="0 0 15 12" fill="none" xmlns="http://www.w3.org/2000/svg">
	<path d="M4.00004 0.666656H11C11.4669 0.666633 11.9162 0.844718 12.2562 1.16459C12.5963 1.48445 12.8015 1.922 12.83 2.38799L12.8334 2.49999V4.73599C13.1969 4.83897 13.5197 5.05174 13.7576 5.34518C13.9956 5.63862 14.137 5.9984 14.1627 6.37532L14.1667 6.49999V11.5C14.1667 11.6267 14.1185 11.7486 14.0321 11.8412C13.9456 11.9337 13.8272 11.99 13.7008 11.9987C13.5744 12.0073 13.4494 11.9676 13.3512 11.8877C13.2529 11.8078 13.1886 11.6935 13.1714 11.568L13.1667 11.5V9.99999H1.83337V11.5C1.83337 11.6208 1.78961 11.7375 1.7102 11.8286C1.63078 11.9197 1.52108 11.9789 1.40137 11.9953L1.33337 12C1.21255 12 1.09581 11.9562 1.00475 11.8768C0.913695 11.7974 0.854473 11.6877 0.838041 11.568L0.833374 11.5V6.49999C0.833374 5.66066 1.39737 4.95332 2.16671 4.73532V2.49999C2.16668 2.03313 2.34477 1.58385 2.66464 1.24379C2.9845 0.903731 3.42205 0.698511 3.88804 0.66999L4.00004 0.666656ZM12.3334 5.66666H2.66671C2.4604 5.66656 2.2614 5.743 2.1082 5.88117C1.955 6.01935 1.8585 6.20943 1.83737 6.41466L1.83337 6.49999V8.99999H13.1667V6.49999C13.1666 6.2938 13.0901 6.09496 12.952 5.9419C12.8138 5.78884 12.6238 5.69244 12.4187 5.67132L12.3334 5.66666ZM11 1.66666H4.00004C3.79374 1.66656 3.59473 1.743 3.44153 1.88117C3.28833 2.01935 3.19183 2.20944 3.17071 2.41466L3.16671 2.49999V4.66666H4.16671C4.16671 4.48985 4.23695 4.32028 4.36197 4.19525C4.48699 4.07023 4.65656 3.99999 4.83337 3.99999H6.16671C6.33 4.00001 6.4876 4.05996 6.60962 4.16847C6.73165 4.27697 6.8096 4.42649 6.82871 4.58866L6.83337 4.66666H8.16671C8.16671 4.48985 8.23695 4.32028 8.36197 4.19525C8.48699 4.07023 8.65656 3.99999 8.83337 3.99999H10.1667C10.33 4.00001 10.4876 4.05996 10.6096 4.16847C10.7316 4.27697 10.8096 4.42649 10.8287 4.58866L10.8334 4.66666H11.8334V2.49999C11.8335 2.29368 11.757 2.09468 11.6189 1.94148C11.4807 1.78828 11.2906 1.69178 11.0854 1.67066L11 1.66666Z" fill="#1A1B27" />
</svg>
