<svg width="18" height="20" viewBox="0 0 18 20" fill="none" xmlns="http://www.w3.org/2000/svg">
	<path d="M6 9.00016L8.00016 10.9998L12 7" stroke="#344054" stroke-linecap="round" stroke-linejoin="round" />
	<path d="M8.99994 19L9.87978 18.6198C11.7246 17.8282 13.3176 16.5469 14.4863 14.9147C15.655 13.2825 16.3549 11.3616 16.51 9.36016L16.9401 3.84016C16.9471 3.61156 16.8754 3.38748 16.737 3.2054C16.5986 3.02332 16.4019 2.89427 16.1798 2.83984L8.99994 1L1.8201 2.8C1.59805 2.85441 1.40139 2.98339 1.26301 3.16537C1.12462 3.34735 1.05288 3.57132 1.05978 3.79984L1.48986 9.31984C1.64494 11.3214 2.34474 13.2424 3.51346 14.8746C4.68217 16.5069 6.27524 17.7883 8.1201 18.58L8.99994 19Z" stroke="#01B73F" stroke-linecap="round" stroke-linejoin="round" />
</svg>
