<svg width="20" height="26" viewBox="0 0 20 26" fill="none" xmlns="http://www.w3.org/2000/svg">
	<path d="M18.1818 24.1429H12.5614C13.5054 23.2817 14.3958 22.361 15.2273 21.3862C18.3466 17.7218 20 13.8589 20 10.2143C20 7.50529 18.9464 4.90725 17.0711 2.9917C15.1957 1.07615 12.6522 0 10 0C7.34784 0 4.8043 1.07615 2.92893 2.9917C1.05357 4.90725 0 7.50529 0 10.2143C0 13.8589 1.64886 17.7218 4.77273 21.3862C5.6042 22.361 6.49458 23.2817 7.43864 24.1429H1.81818C1.57708 24.1429 1.34585 24.2407 1.17536 24.4148C1.00487 24.589 0.909091 24.8252 0.909091 25.0714C0.909091 25.3177 1.00487 25.5539 1.17536 25.728C1.34585 25.9022 1.57708 26 1.81818 26H18.1818C18.4229 26 18.6542 25.9022 18.8246 25.728C18.9951 25.5539 19.0909 25.3177 19.0909 25.0714C19.0909 24.8252 18.9951 24.589 18.8246 24.4148C18.6542 24.2407 18.4229 24.1429 18.1818 24.1429ZM10 6.5C10.7192 6.5 11.4223 6.71784 12.0203 7.12597C12.6183 7.5341 13.0843 8.11419 13.3596 8.79289C13.6348 9.47159 13.7068 10.2184 13.5665 10.9389C13.4262 11.6594 13.0799 12.3212 12.5713 12.8407C12.0627 13.3601 11.4148 13.7139 10.7094 13.8572C10.004 14.0005 9.27288 13.927 8.60842 13.6458C7.94397 13.3647 7.37604 12.8886 6.97647 12.2778C6.57691 11.667 6.36364 10.9489 6.36364 10.2143C6.36364 9.2292 6.74675 8.28445 7.4287 7.58789C8.11065 6.89132 9.03558 6.5 10 6.5Z" fill="#6A4CFF" />
</svg>
