<svg width="71" height="71" viewBox="0 0 71 71" fill="none" xmlns="http://www.w3.org/2000/svg">
	<g clip-path="url(#clip0_813_2910)">
		<path d="M35.4999 3.94446C29.2588 3.94446 23.1579 5.79516 17.9686 9.26253C12.7793 12.7299 8.73474 17.6582 6.34637 23.4242C3.95801 29.1903 3.3331 35.535 4.55068 41.6562C5.76826 47.7774 8.77364 53.4 13.1868 57.8132C17.5999 62.2263 23.2225 65.2317 29.3437 66.4492C35.4649 67.6668 41.8097 67.0419 47.5757 64.6536C53.3417 62.2652 58.27 58.2206 61.7374 53.0313C65.2048 47.8421 67.0555 41.7411 67.0555 35.5C67.0555 27.131 63.7309 19.1047 57.8131 13.1869C51.8952 7.26905 43.869 3.94446 35.4999 3.94446ZM35.4999 63.1111C30.0389 63.1111 24.7006 61.4918 20.16 58.4578C15.6194 55.4239 12.0804 51.1116 9.99057 46.0663C7.90075 41.0211 7.35395 35.4694 8.41933 30.1134C9.48472 24.7573 12.1144 19.8375 15.9759 15.976C19.8374 12.1145 24.7572 9.48482 30.1132 8.41944C35.4693 7.35406 41.021 7.90085 46.0662 9.99067C51.1115 12.0805 55.4238 15.6195 58.4577 20.1601C61.4917 24.7007 63.111 30.0391 63.111 35.5C63.111 42.8229 60.202 49.8459 55.0239 55.024C49.8458 60.2021 42.8228 63.1111 35.4999 63.1111Z" fill="#01B73F" />
		<path d="M55.2225 23.8639C54.8529 23.4966 54.3531 23.2904 53.832 23.2904C53.311 23.2904 52.8111 23.4966 52.4416 23.8639L30.5499 45.657L18.7166 33.8236C18.3557 33.4339 17.8548 33.2036 17.324 33.1833C16.7933 33.1629 16.2762 33.3542 15.8865 33.7152C15.4968 34.0761 15.2664 34.577 15.2461 35.1078C15.2258 35.6385 15.4171 36.1556 15.778 36.5453L30.5499 51.2778L55.2225 26.6645C55.4073 26.4811 55.554 26.263 55.6542 26.0227C55.7543 25.7823 55.8058 25.5245 55.8058 25.2642C55.8058 25.0038 55.7543 24.7461 55.6542 24.5057C55.554 24.2654 55.4073 24.0473 55.2225 23.8639Z" fill="#01B73F" />
	</g>
	<defs>
		<clipPath id="clip0_813_2910">
			<rect width="71" height="71" fill="white" />
		</clipPath>
	</defs>
</svg>
