<svg width="10" height="12" viewBox="0 0 10 12" fill="none" xmlns="http://www.w3.org/2000/svg">
	<path d="M4.99995 9.66939C4.73131 9.66942 4.47017 9.58081 4.25702 9.41731C4.04387 9.25381 3.89062 9.02455 3.82104 8.76508" stroke="#1A1B27" stroke-linecap="round" />
	<path d="M4.03822 1.54098C4.42325 0.886236 4.61607 0.55856 4.89127 0.509745C4.9631 0.496752 5.03668 0.496752 5.1085 0.509745C5.3837 0.55856 5.57652 0.886236 5.96156 1.54098L6.97937 3.2715C7.69064 4.48098 8.24566 5.77577 8.63117 7.12489C9.25784 9.31733 7.61214 11.5 5.33123 11.5H4.66855C2.38825 11.5 0.741935 9.31733 1.36861 7.12489C1.75411 5.77577 2.30914 4.48098 3.02041 3.2715L4.03822 1.54098Z" stroke="#1A1B27" />
</svg>
