<svg width="37" height="28" viewBox="0 0 37 28" fill="none" xmlns="http://www.w3.org/2000/svg">
	<path d="M19.7813 27.5938V19.9062H24.9063L18.5 12.2188L12.0938 19.9062H17.2188V27.5938H10.8125V27.5297C10.5973 27.5425 10.3923 27.5938 10.1719 27.5938C7.62331 27.5938 5.17913 26.5813 3.37702 24.7792C1.57491 22.9771 0.5625 20.5329 0.5625 17.9844C0.5625 13.0541 4.29094 9.03613 9.07513 8.48519C9.49459 6.29244 10.665 4.3144 12.3851 2.89127C14.1052 1.46813 16.2675 0.688868 18.5 0.6875C20.7328 0.688734 22.8954 1.4679 24.616 2.891C26.3365 4.31411 27.5075 6.29222 27.9274 8.48519C32.7116 9.03613 36.4349 13.0541 36.4349 17.9844C36.4349 20.5329 35.4225 22.9771 33.6204 24.7792C31.8183 26.5813 29.3741 27.5938 26.8256 27.5938C26.6103 27.5938 26.4028 27.5425 26.1849 27.5297V27.5938H19.7813Z" fill="#6A4CFF" />
</svg>
