<svg width="46" height="48" viewBox="0 0 46 48" fill="none" xmlns="http://www.w3.org/2000/svg">
<path d="M18 0.75C11.175 0.75 5.75 6.175 5.75 13C5.73804 15.007 6.22223 16.9859 7.15953 18.7606C8.09682 20.5354 9.45817 22.051 11.1225 23.1727C4.8925 25.8555 0.5 32.061 0.5 39.25H4C4 31.55 10.3 25.25 18 25.25C24.825 25.25 30.25 19.825 30.25 13C30.25 6.175 24.825 0.75 18 0.75ZM18 4.25C22.9 4.25 26.75 8.1 26.75 13C26.75 17.9 22.9 21.75 18 21.75C13.1 21.75 9.25 17.9 9.25 13C9.25 8.1 13.1 4.25 18 4.25ZM26.75 25.25C24.825 25.25 23.25 26.825 23.25 28.75V36.45L33.75 46.95C34.45 47.65 35.325 48 36.2 48C37.075 48 37.95 47.65 38.65 46.95L44.95 40.65C45.65 39.95 46 39.075 46 38.2C46 37.325 45.65 36.45 44.95 35.75L34.45 25.25H26.75ZM26.75 28.75H33.05L42.5 38.2L36.2 44.5L26.75 35.05V28.75ZM30.25 30.5C29.7859 30.5 29.3407 30.6844 29.0126 31.0126C28.6844 31.3407 28.5 31.7859 28.5 32.25C28.5 32.7141 28.6844 33.1592 29.0126 33.4874C29.3407 33.8156 29.7859 34 30.25 34C30.7141 34 31.1593 33.8156 31.4874 33.4874C31.8156 33.1592 32 32.7141 32 32.25C32 31.7859 31.8156 31.3407 31.4874 31.0126C31.1593 30.6844 30.7141 30.5 30.25 30.5Z" fill="#D9D9D9"/>
</svg>
