<svg width="42" height="44" viewBox="0 0 42 44" fill="none" xmlns="http://www.w3.org/2000/svg">
<path d="M39.9492 35.7594C38.9176 33.3158 37.4205 31.0962 35.5414 29.2242C33.668 27.3468 31.4488 25.85 29.0063 24.8164C28.9844 24.8055 28.9625 24.8 28.9406 24.7891C32.3477 22.3281 34.5625 18.3195 34.5625 13.7969C34.5625 6.30469 28.4922 0.234375 21 0.234375C13.5078 0.234375 7.43751 6.30469 7.43751 13.7969C7.43751 18.3195 9.65236 22.3281 13.0594 24.7945C13.0375 24.8055 13.0156 24.8109 12.9938 24.8219C10.5438 25.8555 8.34533 27.3375 6.45861 29.2297C4.58124 31.1031 3.08441 33.3223 2.0508 35.7648C1.03537 38.1561 0.487728 40.7198 0.437515 43.3172C0.436055 43.3756 0.446293 43.4336 0.467625 43.488C0.488957 43.5423 0.520951 43.5919 0.561723 43.6336C0.602495 43.6754 0.651219 43.7086 0.705025 43.7313C0.758831 43.754 0.816629 43.7656 0.875015 43.7656H4.15626C4.39689 43.7656 4.5883 43.5742 4.59376 43.3391C4.70314 39.1172 6.39845 35.1633 9.39533 32.1664C12.4961 29.0656 16.6141 27.3594 21 27.3594C25.386 27.3594 29.5039 29.0656 32.6047 32.1664C35.6016 35.1633 37.2969 39.1172 37.4063 43.3391C37.4117 43.5797 37.6031 43.7656 37.8438 43.7656H41.125C41.1834 43.7656 41.2412 43.754 41.295 43.7313C41.3488 43.7086 41.3975 43.6754 41.4383 43.6336C41.4791 43.5919 41.5111 43.5423 41.5324 43.488C41.5537 43.4336 41.564 43.3756 41.5625 43.3172C41.5078 40.7031 40.9664 38.1602 39.9492 35.7594ZM21 23.2031C18.4899 23.2031 16.1274 22.2242 14.35 20.4469C12.5727 18.6695 11.5938 16.307 11.5938 13.7969C11.5938 11.2867 12.5727 8.92422 14.35 7.14687C16.1274 5.36953 18.4899 4.39062 21 4.39062C23.5102 4.39062 25.8727 5.36953 27.65 7.14687C29.4274 8.92422 30.4063 11.2867 30.4063 13.7969C30.4063 16.307 29.4274 18.6695 27.65 20.4469C25.8727 22.2242 23.5102 23.2031 21 23.2031Z" fill="#D9D9D9"/>
</svg>
